<?xml version="1.0" encoding="utf-8"?>
<!-- Generator: Adobe Illustrator 27.5.0, SVG Export Plug-In . SVG Version: 6.00 Build 0)  -->
<svg version="1.1" xmlns="http://www.w3.org/2000/svg" xmlns:xlink="http://www.w3.org/1999/xlink" x="0px" y="0px"
	 viewBox="0 0 500 500" style="enable-background:new 0 0 500 500;" xml:space="preserve">
<g id="Background_Complete">
	<g>
		<path style="fill:#F0F0F0;" d="M187.025,103.422h-56.817c-1.517,0-2.746-1.229-2.746-2.746V43.859c0-1.517,1.23-2.747,2.746-2.747
			h56.817c1.517,0,2.746,1.23,2.746,2.747v56.817C189.771,102.192,188.542,103.422,187.025,103.422z"/>
		<path style="fill:#E0E0E0;" d="M176.825,56.488h-0.075c-2.111,0-3.823,0.135-3.823,0.301c0,0.156,1.503,0.282,3.424,0.298
			c-0.194,0.201-0.471,0.497-0.824,0.886c-0.771,0.865-1.788,2.006-3.029,3.398c-2.564,2.952-6.031,6.941-9.972,11.477
			c-1.364-0.912-2.77-1.851-4.21-2.814c-0.747-0.497-1.485-0.988-2.18-1.451l-0.222-0.147l-0.172,0.202
			c-4.453,5.206-8.391,9.855-11.201,13.216c-1.35,1.632-2.458,2.974-3.293,3.983c-0.765,0.945-1.17,1.475-1.141,1.501
			c0.03,0.025,0.492-0.457,1.309-1.357c0.87-0.979,2.026-2.28,3.433-3.863c2.854-3.248,6.782-7.776,11.174-12.889
			c0.631,0.421,1.289,0.86,1.958,1.307c1.518,1.009,3.001,1.996,4.433,2.948l0.219,0.146l0.169-0.2
			c3.951-4.672,7.425-8.78,9.987-11.809c1.186-1.439,2.157-2.618,2.895-3.513c0.372-0.461,0.635-0.796,0.8-1.019
			c0.014,0,0.028,0,0.042,0c0.015,1.933,0.142,3.448,0.298,3.448c0.164,0,0.298-1.67,0.301-3.747l0-0.301H176.825z"/>
	</g>
	<g>
		<path style="fill:#F0F0F0;" d="M334.688,82.7h30.482c0,16.722-13.76,30.481-30.482,30.481c-16.722,0-30.481-13.76-30.481-30.481
			c0-16.456,13.326-30.093,29.777-30.473L334.688,82.7z"/>
		<path style="fill:#EBEBEB;" d="M342.904,75.27l-0.689-30.481c7.938,0,16.258,3.1,21.946,8.636
			c5.688,5.536,8.996,13.438,9.212,21.372L342.904,75.27z"/>
	</g>
	<g>
		<path style="fill:#EBEBEB;" d="M347.101,208.172c-0.175,5.593,0.147,22.676,0.147,22.676l5.039-5.039h28.111
			c0.987,0,1.787-0.8,1.787-1.786v-15.799c0-0.986-0.8-1.786-1.787-1.786h-31.511C347.92,206.437,347.132,207.205,347.101,208.172z"
			/>
		<g>
			<path style="fill:#E0E0E0;" d="M361.483,216.156c0,0.73-0.592,1.323-1.323,1.323c-0.731,0-1.323-0.592-1.323-1.323
				c0-0.731,0.592-1.323,1.323-1.323C360.891,214.833,361.483,215.425,361.483,216.156z"/>
			<path style="fill:#E0E0E0;" d="M365.939,216.156c0,0.73-0.592,1.323-1.323,1.323c-0.73,0-1.323-0.592-1.323-1.323
				c0-0.731,0.592-1.323,1.323-1.323C365.347,214.833,365.939,215.425,365.939,216.156z"/>
			<path style="fill:#E0E0E0;" d="M370.396,216.156c0,0.73-0.592,1.323-1.323,1.323c-0.73,0-1.323-0.592-1.323-1.323
				c0-0.731,0.592-1.323,1.323-1.323C369.804,214.833,370.396,215.425,370.396,216.156z"/>
		</g>
	</g>
	<path style="fill:#F0F0F0;" d="M117.882,297.055c0.746-9.737,7.913-24.798,16.705-29.047c8.793-4.25,19.818-3.457,27.911,2.008
		c5.515,3.723,9.692,9.39,15.727,12.192c11.93,5.539,26.082-2.308,34.414-12.484c8.332-10.178,13.554-22.808,22.978-31.983
		c9.063-8.825,21.758-13.8,34.404-13.484c12.646,0.316,25.077,5.92,33.688,15.187c6.411,6.899,10.615,15.504,15.76,23.393
		c5.145,7.89,11.764,15.461,20.708,18.411c12.295,4.055,26.169-1.9,34.87-11.486c8.7-9.587,13.215-22.178,16.982-34.563
		c3.767-12.386,7.091-25.143,14.015-36.082c6.924-10.939,18.316-19.991,31.258-20.336v117.901L117.882,297.055z"/>
</g>
<g id="Background_Simple" style="display:none;">
	<path style="display:inline;fill:#F5F5F5;" d="M120.442,193.872C111.08,277.427,127.7,363.413,225.2,375.479
		c50.261,6.221,153.776-16.117,156.528-80.494c3.792-88.723-95.257-56.245-136.817-86.002c-28.49-20.397-6.471-75.416-59.032-84.631
		C144.331,117.066,124.334,159.137,120.442,193.872z"/>
</g>
<g id="Floor">
	<g>
		<path style="fill:#263238;" d="M458.507,445.099c0,0.144-93.359,0.261-208.497,0.261c-115.178,0-208.518-0.117-208.518-0.261
			c0-0.144,93.339-0.26,208.518-0.26C365.148,444.839,458.507,444.955,458.507,445.099z"/>
	</g>
</g>
<g id="Charts">
	<g>
		<g>
			<path style="fill:#263238;" d="M379.349,193.608c-0.001-0.018,0.214,0.002,0.6-0.12c0.369-0.123,0.95-0.459,1.224-1.203
				c0.153-0.363,0.11-0.809,0.111-1.302c-0.004-0.493-0.008-1.031-0.012-1.612c-0.007-1.168-0.015-2.512-0.024-4.022
				c-0.02-6.071-0.048-14.824-0.083-25.633c-0.01-5.413-0.02-11.339-0.032-17.701c-0.004-3.182-0.008-6.472-0.013-9.861
				c-0.002-1.695-0.004-3.414-0.006-5.157c-0.013-0.853,0.026-1.791-0.031-2.59c-0.118-0.774-0.825-1.42-1.619-1.453
				c-14.305,0.004-30.029,0.009-46.535,0.015c-0.916-0.024-1.742,0.779-1.743,1.688c-0.001,1.024-0.002,2.044-0.003,3.061
				c-0.001,2.039-0.001,4.065-0.001,6.075c-0.001,4.021-0.003,7.983-0.004,11.877c-0.005,7.786-0.01,15.297-0.015,22.453
				c-0.009,7.155-0.017,13.954-0.024,20.318c-0.001,0.795-0.002,1.584-0.004,2.366c0.008,0.384-0.024,0.802,0.03,1.127
				c0.062,0.34,0.226,0.66,0.463,0.909c0.237,0.249,0.545,0.428,0.876,0.506c0.317,0.084,0.704,0.041,1.083,0.053
				c0.753,0.001,1.499,0.003,2.237,0.004c2.953,0.006,5.788,0.012,8.494,0.017c10.809,0.035,19.561,0.063,25.631,0.083
				c3.011,0.021,5.356,0.038,6.969,0.049c0.783,0.011,1.385,0.02,1.812,0.026C379.14,193.59,379.349,193.608,379.349,193.608
				s-0.209,0.018-0.617,0.026c-0.427,0.006-1.029,0.015-1.812,0.026c-1.612,0.011-3.957,0.028-6.969,0.049
				c-6.07,0.02-14.823,0.048-25.631,0.083c-2.706,0.005-5.54,0.011-8.494,0.017c-0.738,0.001-1.484,0.002-2.237,0.004
				c-0.371-0.014-0.753,0.041-1.179-0.061c-0.409-0.095-0.79-0.314-1.082-0.62c-0.293-0.305-0.497-0.699-0.576-1.121
				c-0.068-0.442-0.028-0.807-0.04-1.203c-0.001-0.782-0.002-1.57-0.003-2.366c-0.007-6.364-0.016-13.163-0.024-20.318
				c-0.005-7.156-0.01-14.667-0.015-22.453c-0.001-3.894-0.003-7.856-0.004-11.877c-0.001-2.011-0.001-4.037-0.001-6.075
				c0.001-1.022,0.002-2.047,0.003-3.076c0.001-1.182,1.075-2.225,2.263-2.194c16.516,0.01,32.251,0.019,46.566,0.028
				c1.013,0.046,1.906,0.866,2.056,1.851c0.068,0.96,0.017,1.782,0.032,2.67c-0.002,1.743-0.004,3.462-0.006,5.157
				c-0.004,3.389-0.009,6.679-0.013,9.861c-0.012,6.362-0.022,12.288-0.032,17.701c-0.035,10.809-0.063,19.562-0.083,25.633
				c-0.009,1.511-0.017,2.854-0.024,4.022c-0.004,0.581-0.009,1.119-0.012,1.612c-0.009,0.483,0.027,0.955-0.142,1.338
				c-0.307,0.777-0.923,1.107-1.307,1.217C379.563,193.647,379.349,193.608,379.349,193.608z"/>
		</g>
		<g>
			<path style="fill:#263238;" d="M359.428,136.706c-6.802-1.509-14.266,2.187-16.177,9.194c-1.836,6.732,2.606,14.587,9.36,16.418
				c6.613,1.793,14.15-2.275,16.335-8.75c2.426-7.19-2.188-14.936-9.141-17.229c-0.807-0.266-1.128,0.975-0.348,1.261
				c5.928,2.172,10.188,8.572,8.416,14.982c-1.685,6.096-8.83,10.178-14.936,8.556c-5.868-1.559-9.656-7.858-8.91-13.728
				c0.913-7.187,8.523-11.493,15.295-10.317C359.571,137.136,359.683,136.763,359.428,136.706L359.428,136.706z"/>
		</g>
		<g>
			<path style="fill:#E8505B;" d="M352.667,162.114c6.948,2.137,14.948-1.855,17.031-9.029c2.122-7.308-2.605-15.201-9.72-17.377
				c-1.642-0.501-2.228,1.922-0.695,2.522c6.028,2.358,10.021,8.89,7.638,15.301c-2.119,5.701-8.365,8.453-14.148,7.796
				C352.31,161.274,352.252,161.987,352.667,162.114L352.667,162.114z"/>
		</g>
		<g>
			<path style="fill:#E8505B;" d="M370.045,174.069c0,0.144-6.189,0.261-13.822,0.261c-7.636,0-13.824-0.117-13.824-0.261
				c0-0.144,6.188-0.26,13.824-0.26C363.856,173.809,370.045,173.926,370.045,174.069z"/>
		</g>
		<g>
			<path style="fill:#E8505B;" d="M370.045,178.263c0,0.144-6.189,0.261-13.822,0.261c-7.636,0-13.824-0.117-13.824-0.261
				c0-0.144,6.188-0.26,13.824-0.26C363.856,178.002,370.045,178.119,370.045,178.263z"/>
		</g>
	</g>
	<g>
		<path style="fill:#E0E0E0;" d="M181.601,79.2v92.46c0,2.054,1.665,3.719,3.719,3.719h123.16c2.054,0,3.719-1.665,3.719-3.719
			V75.986c0-2.092-1.725-3.772-3.816-3.718l-123.159,3.214C183.208,75.535,181.601,77.184,181.601,79.2z"/>
		<g>
			<path style="fill:#455A64;" d="M301.203,95.38c-0.046,0.097-1.569-0.786-4.556-1.731c-2.964-0.919-7.536-1.807-13.067-0.97
				c-2.743,0.439-5.715,1.269-8.618,2.769c-2.922,1.465-5.708,3.637-8.474,6.095c-2.779,2.452-5.537,5.236-8.719,7.81
				c-3.183,2.533-6.834,4.929-11.128,6.023c-2.132,0.549-4.364,0.691-6.497,0.392c-2.138-0.292-4.157-0.991-6.021-1.859
				c-3.732-1.759-6.924-4.07-10.085-5.997c-3.139-1.966-6.294-3.525-9.485-4.252c-3.172-0.771-6.252-0.928-9.023-0.692
				c-5.576,0.487-9.795,2.461-12.455,4.055c-2.672,1.633-3.933,2.862-4.004,2.776c-0.022-0.024,0.289-0.33,0.905-0.89
				c0.606-0.57,1.573-1.338,2.899-2.206c2.634-1.713,6.889-3.83,12.591-4.417c2.833-0.286,5.998-0.168,9.275,0.593
				c3.296,0.713,6.589,2.31,9.763,4.271c3.204,1.928,6.396,4.208,10.018,5.897c3.585,1.727,7.803,2.495,11.883,1.391
				c4.081-1.036,7.642-3.347,10.772-5.824c3.131-2.516,5.902-5.283,8.722-7.74c2.809-2.462,5.673-4.663,8.702-6.142
				c3.005-1.513,6.068-2.326,8.882-2.73c5.676-0.769,10.315,0.248,13.283,1.289c1.499,0.518,2.614,1.048,3.347,1.44
				C300.843,95.128,301.218,95.351,301.203,95.38z"/>
			<path style="display:none;opacity:0.3;" d="M301.203,95.38c-0.046,0.097-1.569-0.786-4.556-1.731
				c-2.964-0.919-7.536-1.807-13.067-0.97c-2.743,0.439-5.715,1.269-8.618,2.769c-2.922,1.465-5.708,3.637-8.474,6.095
				c-2.779,2.452-5.537,5.236-8.719,7.81c-3.183,2.533-6.834,4.929-11.128,6.023c-2.132,0.549-4.364,0.691-6.497,0.392
				c-2.138-0.292-4.157-0.991-6.021-1.859c-3.732-1.759-6.924-4.07-10.085-5.997c-3.139-1.966-6.294-3.525-9.485-4.252
				c-3.172-0.771-6.252-0.928-9.023-0.692c-5.576,0.487-9.795,2.461-12.455,4.055c-2.672,1.633-3.933,2.862-4.004,2.776
				c-0.022-0.024,0.289-0.33,0.905-0.89c0.606-0.57,1.573-1.338,2.899-2.206c2.634-1.713,6.889-3.83,12.591-4.417
				c2.833-0.286,5.998-0.168,9.275,0.593c3.296,0.713,6.589,2.31,9.763,4.271c3.204,1.928,6.396,4.208,10.018,5.897
				c3.585,1.727,7.803,2.495,11.883,1.391c4.081-1.036,7.642-3.347,10.772-5.824c3.131-2.516,5.902-5.283,8.722-7.74
				c2.809-2.462,5.673-4.663,8.702-6.142c3.005-1.513,6.068-2.326,8.882-2.73c5.676-0.769,10.315,0.248,13.283,1.289
				c1.499,0.518,2.614,1.048,3.347,1.44C300.843,95.128,301.218,95.351,301.203,95.38z"/>
		</g>
		<g>
			<g>
				<rect x="210.688" y="117.1" style="fill:#455A64;" width="12.046" height="32.581"/>
				<rect x="261.805" y="117.1" style="fill:#455A64;" width="12.046" height="32.581"/>
				<rect x="278.845" y="97.967" style="fill:#455A64;" width="12.046" height="51.713"/>
				<rect x="195.098" y="139.424" style="fill:#455A64;" width="12.046" height="10.965"/>
				<rect x="227.727" y="131.812" style="fill:#455A64;" width="12.047" height="17.868"/>
				<rect x="244.766" y="127.71" style="fill:#455A64;" width="12.046" height="21.97"/>
			</g>
			<g style="display:none;opacity:0.3;">
				<rect x="210.688" y="117.1" style="display:inline;" width="12.046" height="32.581"/>
				<rect x="261.805" y="117.1" style="display:inline;" width="12.046" height="32.581"/>
				<rect x="278.845" y="97.967" style="display:inline;" width="12.046" height="51.713"/>
				<rect x="195.098" y="139.424" style="display:inline;" width="12.046" height="10.965"/>
				<rect x="227.727" y="131.812" style="display:inline;" width="12.047" height="17.868"/>
				<rect x="244.766" y="127.71" style="display:inline;" width="12.046" height="21.97"/>
			</g>
		</g>
		<g>
			<g>
				<path style="fill:#263238;" d="M223.219,153.52c0,0.267-2.914,0.484-6.508,0.484c-3.595,0-6.509-0.217-6.509-0.484
					c0-0.268,2.914-0.484,6.509-0.484C220.305,153.036,223.219,153.252,223.219,153.52z"/>
			</g>
			<g>
				<path style="fill:#263238;" d="M208.229,153.52c0,0.267-2.915,0.484-6.508,0.484c-3.595,0-6.509-0.217-6.509-0.484
					c0-0.268,2.914-0.484,6.509-0.484C205.314,153.036,208.229,153.252,208.229,153.52z"/>
			</g>
			<g>
				<path style="fill:#263238;" d="M293.265,153.52c0,0.267-3.294,0.484-7.357,0.484c-4.065,0-7.357-0.217-7.357-0.484
					c0-0.268,3.293-0.484,7.357-0.484C289.971,153.036,293.265,153.252,293.265,153.52z"/>
			</g>
			<g>
				<ellipse style="fill:#263238;" cx="268.012" cy="153.52" rx="7.357" ry="0.484"/>
			</g>
			<g>
				<path style="fill:#263238;" d="M256.813,153.52c0,0.268-2.915,0.485-6.508,0.485c-3.595,0-6.508-0.217-6.508-0.485
					c0-0.267,2.913-0.484,6.508-0.484C253.898,153.036,256.813,153.253,256.813,153.52z"/>
			</g>
			<g>
				<path style="fill:#263238;" d="M239.208,153.52c0,0.268-2.915,0.485-6.508,0.485c-3.595,0-6.509-0.217-6.509-0.485
					c0-0.267,2.914-0.484,6.509-0.484C236.293,153.036,239.208,153.253,239.208,153.52z"/>
			</g>
		</g>
	</g>
	<g>
		<g>
			<path style="fill:#263238;" d="M278.478,194.13c0,0,0.069-0.009,0.207,0c0.137,0.011,0.344,0.049,0.59,0.172
				c0.242,0.124,0.524,0.347,0.72,0.709c0.224,0.361,0.208,0.863,0.207,1.379c0.012,2.123,0.028,5.226,0.05,9.221
				c0.012,4.01,0.027,8.91,0.045,14.6c0.006,2.847,0.013,5.892,0.02,9.12c0.002,0.807,0.003,1.626,0.005,2.457
				c0.001,0.415,0.002,0.833,0.002,1.253c0.012,0.395,0.013,0.915-0.242,1.32c-0.232,0.411-0.629,0.729-1.091,0.861
				c-0.485,0.13-0.911,0.053-1.348,0.076c-0.875,0.001-1.76,0.003-2.657,0.004l0.186-0.187c0.005,2.884,0.009,5.998,0.015,9.224
				l0,0.531l-0.353-0.397c-2.572-2.901-5.319-6-8.168-9.214l0.162,0.073c-24.083,0.013-53.058,0.027-84.223,0.044
				c-1.313,0-2.622,0-3.928,0l-1.955-0.001c-0.336-0.004-0.626,0.01-1-0.009c-0.374-0.036-0.736-0.184-1.027-0.419
				c-0.292-0.236-0.511-0.556-0.626-0.913c-0.054-0.179-0.089-0.365-0.091-0.552l-0.001-0.49v-1.936
				c0.001-1.288,0.001-2.572,0.001-3.851c0.001-5.116,0.003-10.156,0.004-15.109c0.002-4.953,0.005-9.818,0.007-14.583l0.004-1.792
				c0.017-0.685,0.443-1.33,1.048-1.631c0.295-0.157,0.658-0.22,0.966-0.208l0.88,0l1.753,0.001c2.331,0.002,4.635,0.003,6.91,0.005
				c18.202,0.021,34.593,0.04,48.365,0.056c13.757,0.035,24.892,0.063,32.606,0.083c3.838,0.021,6.822,0.038,8.864,0.049
				c1.003,0.011,1.771,0.02,2.306,0.026C278.211,194.112,278.478,194.13,278.478,194.13s-0.266,0.018-0.786,0.027
				c-0.535,0.006-1.303,0.015-2.306,0.026c-2.042,0.011-5.026,0.028-8.864,0.049c-7.714,0.02-18.849,0.048-32.606,0.083
				c-13.771,0.016-30.163,0.035-48.365,0.056c-2.275,0.001-4.579,0.003-6.91,0.004l-1.753,0.001l-0.88,0.001
				c-0.28-0.008-0.512,0.039-0.742,0.155c-0.449,0.225-0.767,0.704-0.777,1.211l-0.002,1.772c0.002,4.765,0.004,9.63,0.006,14.583
				c0.001,4.953,0.003,9.994,0.004,15.109c0,1.279,0,2.563,0.001,3.851v1.936c0.003,0.339-0.02,0.633,0.068,0.883
				c0.084,0.26,0.245,0.494,0.458,0.667c0.214,0.172,0.477,0.279,0.75,0.306c0.275,0.014,0.636,0.004,0.95,0.007l1.955-0.001
				c1.305,0,2.615,0,3.928,0c31.165,0.017,60.14,0.031,84.223,0.044h0.098l0.065,0.073c2.841,3.221,5.58,6.326,8.145,9.234
				l-0.352,0.133c0.005-3.226,0.01-6.34,0.014-9.224l0.001-0.188l0.186,0.001c0.897,0.001,1.782,0.003,2.657,0.004
				c0.434-0.017,0.894,0.047,1.248-0.057c0.371-0.105,0.693-0.361,0.882-0.692c0.206-0.338,0.208-0.707,0.2-1.144
				c0.001-0.42,0.001-0.838,0.003-1.253c0.001-0.831,0.003-1.649,0.005-2.457c0.007-3.229,0.014-6.273,0.02-9.12
				c0.018-5.689,0.032-10.59,0.045-14.6c0.022-3.995,0.038-7.098,0.049-9.221c0.01-0.528,0.034-0.994-0.171-1.342
				c-0.179-0.35-0.444-0.57-0.674-0.699C278.772,194.102,278.471,194.155,278.478,194.13z"/>
		</g>
		<path style="fill:#E8505B;" d="M179.591,227.867c0.841-2.93,1.816-5.916,3.77-8.254c1.955-2.339,5.121-3.908,8.072-3.148
			c4.663,1.2,6.919,7.412,11.691,8.05c2.638,0.353,5.208-1.227,6.908-3.274c1.7-2.047,2.748-4.543,4.049-6.864
			c1.954-3.484,4.631-6.713,8.222-8.464c3.591-1.751,8.204-1.758,11.343,0.712c5.381,4.237,4.631,13.592,10.366,17.337
			c2.747,1.794,6.607,1.679,9.243-0.275c2.542-1.884,3.849-5.146,6.524-6.836c3.099-1.957,7.405-1.19,10.21,1.169
			c2.804,2.359,4.274,5.992,4.807,9.618"/>
		<g>
			<path style="fill:#263238;" d="M272.864,211.049c-0.004,0.008-0.084-0.023-0.235-0.091c-0.177-0.082-0.395-0.184-0.663-0.31
				c-0.595-0.242-1.471-0.609-2.656-0.895c-2.353-0.585-5.973-0.797-10.199,0.297c-2.107,0.542-4.346,1.395-6.67,2.48
				c-2.329,1.082-4.743,2.395-7.315,3.733c-2.572,1.333-5.321,2.686-8.333,3.694c-2.999,1.006-6.314,1.632-9.695,1.353
				c-3.379-0.258-6.566-1.223-9.5-2.399c-2.942-1.178-5.655-2.576-8.241-3.874c-5.14-2.635-9.953-4.745-14.276-5.391
				c-4.31-0.701-7.894-0.103-10.165,0.742c-2.298,0.83-3.354,1.74-3.393,1.669c-0.005-0.007,0.06-0.061,0.194-0.159
				c0.16-0.114,0.357-0.253,0.601-0.425c0.549-0.339,1.373-0.839,2.528-1.274c2.278-0.914,5.913-1.581,10.291-0.915
				c4.396,0.609,9.279,2.712,14.435,5.326c2.594,1.288,5.299,2.67,8.215,3.83c2.908,1.16,6.047,2.102,9.35,2.354
				c3.3,0.272,6.534-0.333,9.496-1.318c2.971-0.987,5.703-2.318,8.274-3.637c2.571-1.323,5.002-2.627,7.354-3.699
				c2.349-1.077,4.62-1.918,6.762-2.446c4.295-1.063,7.971-0.79,10.338-0.136C271.744,210.225,272.864,211.049,272.864,211.049z"/>
		</g>
		<g>
			<path style="fill:#455A64;" d="M228.245,204.674c0,0.581-0.471,1.052-1.052,1.052c-0.58,0-1.051-0.471-1.051-1.052
				c0-0.581,0.471-1.051,1.051-1.051C227.774,203.622,228.245,204.093,228.245,204.674z"/>
			<path style="fill:#455A64;" d="M190.56,209.12c0,0.581-0.471,1.051-1.051,1.051c-0.581,0-1.052-0.471-1.052-1.051
				c0-0.581,0.471-1.052,1.052-1.052C190.089,208.068,190.56,208.54,190.56,209.12z"/>
			<path style="fill:#455A64;" d="M265.535,209.126c0,0.581-0.471,1.051-1.051,1.051c-0.581,0-1.051-0.471-1.051-1.051
				c0-0.581,0.471-1.052,1.051-1.052C265.064,208.074,265.535,208.545,265.535,209.126z"/>
		</g>
	</g>
</g>
<g id="Character_2">
	<g>
		<path style="fill:#455A64;" d="M336.559,357.414c4.972,0,8.47,0,9.375,0c4.366,0,13.737-11.495-37.108-10.182
			c-33.421,0.862-35.614,5.795-33.922,8.677c0.794,1.354,2.346,2.066,3.911,1.952c0.814-0.059,1.895-0.071,3.175-0.065l-0.8,3.526
			h0.002l-18.606,82.218l3.243-0.281l13.736-45.273l26.212-1.005l1.5,48.118h4.111l0.991-48.371l0.126-0.005l2.77-0.106
			l23.237-0.892l13.765,49.374h3.945L336.559,357.414z M281.518,391.552l9.172-30.229l1.039-3.423l0,0
			c3.846,0,8.335-0.089,12.829-0.089l1.028,32.987L281.518,391.552z M316.08,390.469L316.08,390.469l-1.017,0.031l-2.558,0.081
			l0.679-33.167c5.076,0,10.103,0,14.647,0l9.034,32.403L316.08,390.469z"/>
		<g>
			<g>
				<g>
					<path style="fill:#E8505B;" d="M252.814,439.452l-0.001-10.628l19.044-0.128l0.158,15.893l-1.18,0.088
						c-5.253,0.339-26.733,0.997-30.252-0.093C236.657,443.369,252.814,439.452,252.814,439.452z"/>
				</g>
				<g>
					<g>
						<path style="fill:#263238;" d="M240.132,443.611c0,0.179,7.123,0.324,15.909,0.324c8.788,0,15.91-0.145,15.91-0.324
							s-7.122-0.324-15.91-0.324C247.255,443.287,240.132,443.433,240.132,443.611z"/>
					</g>
				</g>
				<g>
					<g>
						<path style="fill:#263238;" d="M252.479,441.621c0.157-0.083,0.022-0.645-0.387-1.197c-0.407-0.556-0.905-0.851-1.03-0.726
							c-0.128,0.128,0.133,0.596,0.509,1.108C251.948,441.317,252.319,441.706,252.479,441.621z"/>
					</g>
				</g>
				<g>
					<g>
						<path style="fill:#263238;" d="M251.264,442.32c0.166-0.062,0.08-0.691-0.295-1.354c-0.372-0.665-0.868-1.063-1.006-0.953
							c-0.143,0.111,0.097,0.653,0.443,1.27C250.754,441.899,251.095,442.386,251.264,442.32z"/>
					</g>
				</g>
				<g>
					<g>
						<path style="fill:#263238;" d="M266.213,443.54c0.074,0.052,0.358-0.228,0.77-0.695c0.414-0.464,0.957-1.12,1.67-1.673
							c0.707-0.552,1.485-0.828,2.061-0.9c0.579-0.077,0.959,0.013,0.991-0.081c0.034-0.069-0.32-0.335-1.006-0.376
							c-0.676-0.046-1.632,0.211-2.44,0.844c-0.804,0.628-1.316,1.376-1.645,1.917C266.289,443.122,266.141,443.49,266.213,443.54z"
							/>
					</g>
				</g>
				<g>
					<g>
						<path style="fill:#263238;" d="M252.421,439.623c-0.093,0.15,0.233,0.519,0.777,0.718c0.544,0.201,1.032,0.131,1.058-0.044
							c0.028-0.178-0.357-0.386-0.834-0.563C252.944,439.56,252.515,439.469,252.421,439.623z"/>
					</g>
				</g>
				<g>
					<g>
						<path style="fill:#263238;" d="M252.72,438.596c-0.018,0.178,0.49,0.331,1.133,0.339c0.643,0.009,1.154-0.13,1.142-0.308
							c-0.013-0.179-0.52-0.33-1.134-0.339C253.248,438.28,252.737,438.418,252.72,438.596z"/>
					</g>
				</g>
			</g>
			<g>
				<g>
					<path style="fill:#E8505B;" d="M293.014,439.452l0-10.628l19.044-0.128l0.157,15.893l-1.18,0.088
						c-5.253,0.339-26.732,0.997-30.252-0.093C276.857,443.369,293.014,439.452,293.014,439.452z"/>
				</g>
				<g>
					<g>
						<path style="fill:#263238;" d="M280.332,443.611c0,0.179,7.124,0.324,15.909,0.324c8.788,0,15.91-0.145,15.91-0.324
							s-7.122-0.324-15.91-0.324C287.456,443.287,280.332,443.433,280.332,443.611z"/>
					</g>
				</g>
				<g>
					<g>
						<path style="fill:#263238;" d="M292.679,441.621c0.157-0.083,0.022-0.645-0.387-1.197c-0.408-0.556-0.906-0.851-1.03-0.726
							c-0.128,0.128,0.133,0.596,0.509,1.108C292.148,441.317,292.52,441.706,292.679,441.621z"/>
					</g>
				</g>
				<g>
					<g>
						<path style="fill:#263238;" d="M291.464,442.32c0.166-0.062,0.08-0.691-0.295-1.354c-0.372-0.665-0.868-1.063-1.006-0.953
							c-0.143,0.111,0.097,0.653,0.442,1.27C290.955,441.899,291.295,442.386,291.464,442.32z"/>
					</g>
				</g>
				<g>
					<g>
						<path style="fill:#263238;" d="M306.414,443.54c0.074,0.052,0.358-0.228,0.77-0.695c0.414-0.464,0.958-1.12,1.67-1.673
							c0.707-0.552,1.485-0.828,2.061-0.9c0.579-0.077,0.959,0.013,0.991-0.081c0.033-0.069-0.32-0.335-1.006-0.376
							c-0.676-0.046-1.632,0.211-2.44,0.844c-0.804,0.628-1.317,1.376-1.645,1.917C306.489,443.122,306.341,443.49,306.414,443.54z"
							/>
					</g>
				</g>
				<g>
					<g>
						<path style="fill:#263238;" d="M292.621,439.623c-0.093,0.15,0.234,0.519,0.777,0.718c0.544,0.201,1.032,0.131,1.058-0.044
							c0.028-0.178-0.358-0.386-0.834-0.563C293.145,439.56,292.715,439.469,292.621,439.623z"/>
					</g>
				</g>
				<g>
					<g>
						<path style="fill:#263238;" d="M292.92,438.596c-0.017,0.178,0.49,0.331,1.133,0.339c0.643,0.009,1.154-0.13,1.142-0.308
							c-0.013-0.179-0.52-0.33-1.134-0.339C293.448,438.28,292.937,438.418,292.92,438.596z"/>
					</g>
				</g>
			</g>
			<path style="fill:#263238;" d="M347.584,248.776c-0.784-0.174-1.756-0.073-2.224-0.727c-0.426-0.595-0.128-1.411,0.12-2.101
				c0.794-2.205,0.913-4.696,0.07-6.884c-0.561-1.456-1.58-2.743-2.866-3.611c0.184-0.191,0.353-0.395,0.483-0.621
				c0.399-0.69,0.543-1.462,0.54-2.184c-0.025-1.429-0.478-2.817-1.463-3.645c-0.961-0.814-2.422-0.846-3.13-0.04
				c-0.722,0.73-0.667,1.893-0.044,2.329c0.58,0.441,1.209,0.355,1.52,0.191c0.33-0.174,0.384-0.381,0.384-0.381
				c-0.022-0.022-0.115,0.16-0.427,0.286c-0.292,0.123-0.868,0.154-1.347-0.251c-0.497-0.377-0.515-1.355,0.122-1.969
				c0.597-0.654,1.852-0.613,2.686,0.119c0.846,0.729,1.266,2.034,1.267,3.361c-0.005,0.665-0.149,1.358-0.502,1.953
				c-0.131,0.221-0.302,0.416-0.49,0.596c-0.537-0.312-1.111-0.555-1.718-0.702c-1.292-0.314-2.699-0.236-3.878-0.848
				c-0.995-0.516-1.688-1.47-2.103-2.521c-0.007-0.117-0.02-0.232-0.018-0.35c-0.012-1.752,0.548-3.464,0.718-5.185
				c0.198-1.711,0.183-3.402-0.136-4.969c-0.598-3.153-2.558-5.659-4.764-6.7c-2.232-1.074-4.371-0.669-5.554-0.1
				c-0.611,0.288-1.027,0.614-1.285,0.852c-0.095,0.092-0.151,0.155-0.207,0.217c-0.585,0.3-1.113,0.699-1.526,1.223l-3.086,27.778
				l22.597,13.81c1.751-0.167,3.537-0.343,5.15-1.043c1.614-0.7,3.058-2.025,3.44-3.743
				C350.295,251.198,349.302,249.156,347.584,248.776z M332.746,219.686c-0.858-2.16-2.434-4.125-4.59-4.992
				c-1.45-0.583-3.161-0.551-4.568,0.079c0.273-0.212,0.699-0.502,1.324-0.767c1.165-0.495,3.223-0.814,5.308,0.244
				c2.069,1.027,3.908,3.434,4.457,6.463c0.294,1.508,0.3,3.145,0.1,4.816c-0.125,1.247-0.475,2.511-0.642,3.855
				c-0.143-0.942-0.17-1.906-0.211-2.861C333.826,224.202,333.603,221.847,332.746,219.686z"/>
			<g>
				<path style="fill:#FFBE9D;" d="M326.061,219.65c-0.158-0.523-0.432-1.034-0.884-1.341c-0.718-0.487-1.831-0.317-2.704-0.121
					l-0.052-6.376l-12.466-10.102l-6.681,3.469c-3.499,1.817-5.682,5.441-5.644,9.383c0.049,5.139,0.178,12.111,0.517,16.065
					c0.582,6.796,7.462,7.357,7.462,7.357s0.296,2.45,0.502,4.886c-0.001,0.014-1.513,20.132,5.57,19.95
					c5.22-0.133,8.727-11.104,10.212-16.874l0.781-3.17l-0.001-0.164c0.016-0.079,0.027-0.133,0.027-0.133
					c-0.009-0.002-0.019-0.002-0.028-0.004l-0.156-19.091l0.216,0.219c0.396,0.438,1.102,0.427,1.646,0.2
					c0.756-0.315,1.347-0.976,1.635-1.742C326.302,221.297,326.297,220.434,326.061,219.65z"/>
				<g>
					<path style="fill:#263238;" d="M299.245,219.535c0.012,0.481,0.411,0.862,0.892,0.85c0.481-0.012,0.862-0.411,0.85-0.893
						c-0.012-0.481-0.411-0.861-0.892-0.85C299.614,218.654,299.233,219.054,299.245,219.535z"/>
					<g>
						<path style="fill:#263238;" d="M298.378,218.605c0.115,0.11,0.746-0.453,1.682-0.526c0.936-0.087,1.652,0.361,1.747,0.233
							c0.047-0.057-0.075-0.262-0.388-0.466c-0.308-0.203-0.823-0.382-1.407-0.333s-1.061,0.314-1.33,0.566
							C298.408,218.335,298.323,218.557,298.378,218.605z"/>
					</g>
				</g>
				<g>
					<path style="fill:#263238;" d="M309.352,219.235c0.011,0.481,0.411,0.862,0.892,0.85c0.481-0.012,0.862-0.411,0.85-0.892
						c-0.012-0.481-0.411-0.862-0.893-0.85C309.72,218.355,309.34,218.754,309.352,219.235z"/>
					<g>
						<path style="fill:#263238;" d="M308.787,218.299c0.115,0.11,0.746-0.453,1.682-0.526c0.936-0.086,1.652,0.361,1.747,0.233
							c0.047-0.057-0.075-0.262-0.388-0.466c-0.308-0.203-0.823-0.382-1.407-0.332c-0.583,0.05-1.061,0.314-1.33,0.566
							C308.816,218.028,308.731,218.25,308.787,218.299z"/>
					</g>
				</g>
				<g>
					<path style="fill:#263238;" d="M305.584,226.358c-0.001,0.056-0.591,0.098-1.543,0.122c-0.118,0.002-0.253,0.01-0.41-0.026
						c-0.155-0.03-0.339-0.152-0.414-0.333c-0.144-0.365-0.006-0.699,0.067-0.991c0.18-0.626,0.369-1.281,0.566-1.968
						c0.825-2.787,1.581-5.02,1.688-4.988c0.107,0.031-0.475,2.316-1.3,5.104c-0.208,0.684-0.406,1.336-0.596,1.959
						c-0.1,0.3-0.184,0.577-0.116,0.753c0.05,0.167,0.279,0.198,0.519,0.205C304.997,226.243,305.585,226.302,305.584,226.358z"/>
				</g>
				<path style="fill:#FAFAFA;" d="M308.827,227.124c0.065-0.078-2.706,1.67-4.62,1.717c0,0,1.222,1.668,3.13,0.807
					C309.319,228.754,308.827,227.124,308.827,227.124z"/>
				<path style="fill:#EB996E;" d="M305.61,237.986c0,0,4.586-0.061,8.944-3.265c0,0-1.923,5.047-8.755,4.931L305.61,237.986z"/>
				<path style="fill:#263238;" d="M296.676,215.383c2.963,0.412,5.151-0.4,8.053-1.13c2.901-0.73,5.657-2.645,6.668-5.46
					c0.343,1.851,1.213,3.601,2.48,4.993c0.277,0.305,0.798,0.586,1.045,0.256c0.129-0.173,0.082-0.415,0.029-0.624
					c-0.2-0.792-0.4-1.583-0.599-2.374c1.132,1.795,2.295,3.624,3.952,4.951c1.657,1.327,6.702,3.387,5.939,1.407
					c-0.191-0.497,1.499-15.921-13.16-16.151C296.425,201.019,296.676,215.383,296.676,215.383z"/>
				<g>
					<path style="fill:#EB996E;" d="M322.655,219.774c-0.041-0.043,0.253-0.351,0.883-0.333c0.303,0.015,0.68,0.121,1.002,0.405
						c0.327,0.282,0.533,0.749,0.532,1.235c-0.001,0.485-0.208,0.952-0.536,1.233c-0.323,0.284-0.7,0.388-1.004,0.402
						c-0.63,0.016-0.923-0.293-0.882-0.336c0.035-0.073,0.355,0.073,0.838-0.03c0.479-0.081,1.077-0.531,1.063-1.27
						c0.017-0.739-0.579-1.19-1.058-1.273C323.01,219.703,322.69,219.848,322.655,219.774z"/>
				</g>
			</g>
			<g>
				<g>
					<path style="fill:#E8505B;" d="M347.042,267.673l2.52-0.511c0,0-5.491-24.681-24.568-24.681c-0.801,0-1.557,0.002-2.293,0.005
						c-0.001,0.007-0.011,0.055-0.026,0.128l0.001,0.164l-0.781,3.17c-1.486,5.771-4.993,16.741-10.212,16.874
						c-6.608,0.169-5.735-17.321-5.588-19.682c-0.41,0.076-0.484,0.128-0.484,0.128s-20.752,1.155-29.958,19.354l15.998,11.69
						l3.915-2.364c0,0,1.275,25.744-0.922,32.749c-2.486,7.926-6.325,16.697-6.325,16.697c17.598-1.371,37.602-0.588,58.934,1.385
						l-14.256-52.259C337.929,270.221,342.494,269.341,347.042,267.673z"/>
					<g>
						<g>
							<path style="fill:#263238;" d="M329.875,280.018c0.023,0.022-0.125,0.229-0.444,0.557c-0.318,0.329-0.823,0.766-1.512,1.216
								c-1.36,0.902-3.581,1.787-6.129,1.696c-2.55-0.094-4.701-1.139-5.992-2.137c-0.655-0.499-1.126-0.971-1.419-1.322
								c-0.294-0.351-0.428-0.566-0.403-0.588c0.068-0.063,0.713,0.719,2.036,1.609c1.303,0.892,3.376,1.827,5.796,1.918
								c2.42,0.085,4.555-0.698,5.92-1.491C329.111,280.684,329.811,279.951,329.875,280.018z"/>
						</g>
						<g>
							<path style="fill:#263238;" d="M339.121,293.745c-0.035,0.009-0.188-0.43-0.436-1.231c-0.27-0.902-0.612-2.042-1.02-3.4
								c-0.852-2.873-2.04-6.839-3.419-11.196c-1.382-4.359-2.694-8.285-3.652-11.125c-0.449-1.345-0.826-2.474-1.124-3.367
								c-0.259-0.798-0.387-1.245-0.353-1.257c0.034-0.013,0.225,0.41,0.543,1.188c0.319,0.775,0.757,1.908,1.281,3.314
								c1.048,2.811,2.417,6.725,3.802,11.091c1.381,4.364,2.515,8.353,3.277,11.254c0.381,1.451,0.675,2.629,0.861,3.447
								C339.069,293.279,339.156,293.736,339.121,293.745z"/>
						</g>
						<g>
							<path style="fill:#263238;" d="M332.926,254.282c-0.041,0.135-1.211-0.11-2.557-0.688c-1.348-0.575-2.333-1.25-2.265-1.373
								c0.07-0.129,1.148,0.331,2.469,0.894C331.893,253.682,332.97,254.143,332.926,254.282z"/>
						</g>
						<g>
							<path style="fill:#263238;" d="M337.846,262.843c-0.136-0.045,0.176-1.355,0.697-2.925c0.522-1.57,1.055-2.807,1.192-2.762
								c0.136,0.046-0.176,1.355-0.698,2.926C338.516,261.652,337.983,262.888,337.846,262.843z"/>
						</g>
						<g>
							<path style="fill:#263238;" d="M320.718,268.996c-0.126-0.073,0.404-1.212,1.074-2.599c0.673-1.386,1.238-2.507,1.374-2.453
								c0.132,0.052-0.222,1.274-0.906,2.681C321.581,268.032,320.84,269.068,320.718,268.996z"/>
						</g>
						<g>
							<path style="fill:#263238;" d="M317.616,274.419c-0.092,0.105-1.175-0.694-2.28-1.923c-1.108-1.225-1.794-2.384-1.679-2.465
								c0.12-0.086,0.979,0.916,2.066,2.116C316.806,273.351,317.714,274.309,317.616,274.419z"/>
						</g>
						<g>
							<path style="fill:#263238;" d="M330.043,273.603c0.111,0.083-0.768,1.435-2.142,2.859c-1.013,1.061-2,1.85-2.473,2.14
								l-0.74,0.452l0.587-0.592c0.139-0.141,0.229-0.207,0.26-0.186c0.03,0.021-0.002,0.129-0.089,0.307l-0.154-0.14
								c0.351-0.427,1.236-1.298,2.234-2.342C328.876,274.701,329.925,273.513,330.043,273.603z"/>
						</g>
						<g>
							<path style="fill:#263238;" d="M332.687,291.448c-0.055,0.129-1.332-0.3-2.751-1.143c-1.422-0.84-2.411-1.754-2.324-1.863
								c0.09-0.117,1.198,0.594,2.59,1.415C331.59,290.683,332.747,291.313,332.687,291.448z"/>
						</g>
						<g>
							<path style="fill:#263238;" d="M320.164,287.374c0.115,0.088-0.555,1.265-1.495,2.63c-0.94,1.365-1.802,2.409-1.924,2.334
								c-0.122-0.076,0.547-1.253,1.496-2.63C319.189,288.332,320.05,287.287,320.164,287.374z"/>
						</g>
						<g>
							<path style="fill:#263238;" d="M311.941,288.178c-0.089,0.113-1.025-0.471-2.091-1.305c-1.066-0.834-1.858-1.601-1.77-1.715
								c0.088-0.113,1.025,0.471,2.091,1.305C311.237,287.297,312.029,288.064,311.941,288.178z"/>
						</g>
						<g>
							<path style="fill:#263238;" d="M307.489,276.045c0.083,0.117-0.698,0.817-1.745,1.564c-1.048,0.746-1.964,1.257-2.048,1.14
								c-0.083-0.117,0.698-0.817,1.746-1.564C306.489,276.438,307.406,275.929,307.489,276.045z"/>
						</g>
						<g>
							<path style="fill:#263238;" d="M305.794,269.835c-0.115,0.087-0.837-0.674-1.614-1.699c-0.777-1.025-1.314-1.927-1.199-2.014
								c0.115-0.087,0.837,0.674,1.614,1.699C305.372,268.847,305.909,269.748,305.794,269.835z"/>
						</g>
						<g>
							<path style="fill:#263238;" d="M323.62,253.432c-0.127-0.068,0.324-1.157,1.007-2.433c0.683-1.275,1.339-2.254,1.466-2.186
								c0.127,0.068-0.324,1.157-1.007,2.433C324.403,252.52,323.746,253.499,323.62,253.432z"/>
						</g>
						<g>
							<path style="fill:#263238;" d="M301.341,254.469c-0.075,0.123-1.222-0.446-2.56-1.27c-1.339-0.824-2.363-1.591-2.288-1.714
								c0.076-0.122,1.222,0.446,2.561,1.27C300.392,253.579,301.416,254.347,301.341,254.469z"/>
						</g>
						<g>
							<path style="fill:#263238;" d="M289.675,251.48c0.124,0.073-0.247,0.926-0.827,1.903c-0.581,0.979-1.151,1.712-1.275,1.639
								c-0.124-0.074,0.247-0.926,0.827-1.904C288.98,252.141,289.551,251.407,289.675,251.48z"/>
						</g>
						<g>
							<path style="fill:#263238;" d="M301.805,319.024c-0.08,0.119-1.165-0.466-2.423-1.307c-1.258-0.842-2.214-1.62-2.134-1.74
								c0.08-0.119,1.165,0.466,2.423,1.307C300.93,318.126,301.885,318.904,301.805,319.024z"/>
						</g>
						<g>
							<path style="fill:#263238;" d="M335.233,315.421c0.106,0.098-0.624,1.063-1.63,2.156c-1.006,1.094-1.908,1.901-2.014,1.804
								c-0.105-0.097,0.624-1.063,1.63-2.156C334.226,316.131,335.127,315.323,335.233,315.421z"/>
						</g>
						<g>
							<path style="fill:#263238;" d="M312.52,319.166c-0.145-0.036-0.03-0.921-0.034-2.002c0.004-1.081-0.11-1.965,0.034-2.001
								c0.133-0.04,0.49,0.844,0.486,2.001C313.01,318.321,312.653,319.205,312.52,319.166z"/>
						</g>
						<g>
							<path style="fill:#263238;" d="M324.336,319.357c-0.075,0.123-1.167-0.404-2.439-1.177c-1.272-0.772-2.243-1.499-2.168-1.621
								c0.075-0.123,1.167,0.403,2.439,1.176C323.439,318.509,324.41,319.234,324.336,319.357z"/>
						</g>
					</g>
					<g>
						<path style="fill:#263238;" d="M347.251,322.779c-0.002,0.018-0.209,0.014-0.602-0.012c-0.449-0.035-1.017-0.079-1.716-0.134
							c-1.557-0.14-3.693-0.331-6.302-0.565c-5.32-0.463-12.672-1.117-20.814-1.251c-8.146-0.155-15.523,0.048-20.859,0.255
							c-2.616,0.111-4.758,0.203-6.319,0.27c-0.701,0.026-1.27,0.048-1.719,0.065c-0.394,0.01-0.601,0.006-0.602-0.013
							c-0.001-0.018,0.204-0.049,0.595-0.092c0.448-0.043,1.015-0.097,1.713-0.163c1.489-0.126,3.647-0.284,6.315-0.435
							c5.336-0.301,12.725-0.564,20.887-0.408c8.165,0.135,15.527,0.85,20.841,1.406c2.657,0.284,4.804,0.541,6.287,0.73
							c0.695,0.095,1.26,0.171,1.706,0.231C347.049,322.723,347.253,322.762,347.251,322.779z"/>
					</g>
				</g>
				<g style="opacity:0.2;">
					<path d="M329.118,262.168l5.003,33.247c0,0,4.634-0.039,5.478-1.377L329.118,262.168z"/>
					<path d="M329.118,262.168l5.003,33.247c0,0,4.634-0.039,5.478-1.377L329.118,262.168z"/>
				</g>
			</g>
			<g>
				<path style="fill:#263238;" d="M300.086,320.762c-11.769,0.911-18.201,0.099-31.145,1.314
					c-9.033,1.192-15.849,8.789-16.061,17.897l-2.268,97.809H274.4l3.757-87.691l7.015,0.888c-0.902,32.84,2.53,86.804,2.53,86.804
					l26.413-1.29l-1.509-84.221c0,0,35.531,2.412,34.644-29.492C347.251,322.779,319.268,319.389,300.086,320.762z"/>
				<g>
					<path style="fill:#455A64;" d="M307.2,320.507c0.004,0.037-0.638,0.136-1.799,0.308c-1.16,0.174-2.839,0.424-4.9,0.803
						c-2.051,0.419-4.558,0.729-7.053,1.874c-1.248,0.557-2.482,1.315-3.59,2.295c-1.1,0.987-2.047,2.22-2.721,3.64
						c-1.367,2.85-1.668,5.941-1.695,8.68c0.029,2.763,0.104,5.272,0.08,7.373c-0.014,2.103-0.092,3.803-0.172,4.976
						c-0.042,0.587-0.08,1.041-0.114,1.35c-0.034,0.308-0.06,0.469-0.078,0.468c-0.038-0.003-0.029-0.652-0.01-1.825
						c0.018-1.174,0.039-2.87,0.006-4.967c-0.055-2.126-0.12-4.619-0.192-7.374c0.003-2.777,0.287-5.94,1.707-8.907
						c0.699-1.476,1.698-2.77,2.85-3.793c1.16-1.016,2.444-1.791,3.734-2.352c2.592-1.156,5.133-1.427,7.187-1.8
						c2.077-0.333,3.768-0.529,4.938-0.641c0.586-0.056,1.041-0.091,1.35-0.107C307.035,320.489,307.198,320.489,307.2,320.507z"/>
				</g>
				<g>
					<path style="fill:#455A64;" d="M276.059,343.96c0.128-0.022,0.6,1.318,1.291,2.97c0.695,1.656,0.964,3.134,0.807,3.161
						c-0.128,0.022-0.599-1.318-1.29-2.97C276.171,345.465,275.902,343.988,276.059,343.96z"/>
				</g>
				<g>
					<path style="fill:#455A64;" d="M277.987,342.01c0.123-0.018,0.565,1.756,0.691,4.024c0.117,2.285-0.393,4.092-0.521,4.057
						c-0.152-0.029,0.116-1.82,0.001-4.033C278.036,343.847,277.825,342.03,277.987,342.01z"/>
				</g>
				<g>
					<g>
						<path style="fill:#455A64;" d="M310.807,343.848c0.146-0.043,0.736,1.818,1.155,4.163c0.419,2.341,0.775,4.222,0.644,4.261
							c-0.146,0.042-0.736-1.819-1.155-4.164C311.032,345.767,310.677,343.886,310.807,343.848z"/>
					</g>
					<g>
						<path style="fill:#455A64;" d="M313.189,343.834c0.135-0.018,0.46,1.885,0.327,4.249c-0.124,2.365-0.654,4.221-0.787,4.189
							c-0.148-0.031,0.146-1.9,0.267-4.217C313.127,345.738,313.038,343.849,313.189,343.834z"/>
					</g>
				</g>
				<g>
					<path style="fill:#455A64;" d="M273.787,432.067c0,0.144-5.21,0.26-11.637,0.26c-6.428,0-11.638-0.116-11.638-0.26
						c0-0.143,5.209-0.261,11.638-0.261C268.576,431.807,273.787,431.924,273.787,432.067z"/>
				</g>
				<g>
					<path style="fill:#455A64;" d="M313.789,431.631c0,0.144-5.927,0.26-13.236,0.26c-7.313,0-13.238-0.116-13.238-0.26
						c0-0.143,5.926-0.261,13.238-0.261C307.863,431.37,313.789,431.487,313.789,431.631z"/>
				</g>
				<g>
					<path style="fill:#455A64;" d="M344.093,337.419c0,0.01-0.114,0.019-0.337,0.026c-0.25,0.007-0.577,0.015-0.989,0.025
						c-0.902,0.01-2.177,0.025-3.801,0.044c-3.335,0.017-8.103,0.04-13.982,0.068c-2.953,0.01-6.184,0.02-9.651,0.032
						c-1.724,0.041-3.516,0.147-5.277,0.609c-1.746,0.454-3.481,1.352-4.63,2.869c-1.166,1.504-1.612,3.492-1.701,5.494
						c-0.101,2.018,0.113,4.094,0.191,6.225c0.116,4.246,0.236,8.642,0.359,13.143c0.502,18.012,0.922,34.318,1.075,46.125
						c0.081,5.903,0.105,10.681,0.101,13.982c-0.011,1.625-0.02,2.9-0.026,3.802c-0.008,0.411-0.015,0.738-0.02,0.988
						c-0.008,0.223-0.016,0.337-0.025,0.337c-0.009,0-0.019-0.114-0.028-0.337c-0.008-0.25-0.018-0.576-0.031-0.988
						c-0.017-0.902-0.04-2.176-0.071-3.801c-0.063-3.333-0.154-8.1-0.267-13.977c-0.247-11.803-0.725-28.105-1.227-46.117
						c-0.12-4.501-0.236-8.896-0.349-13.14c-0.073-2.11-0.286-4.199-0.178-6.268c0.096-2.049,0.563-4.152,1.819-5.763
						c1.236-1.621,3.085-2.559,4.893-3.02c1.825-0.469,3.647-0.565,5.386-0.598c3.47,0.012,6.704,0.021,9.659,0.031
						c5.878,0.041,10.646,0.074,13.981,0.098c1.625,0.022,2.899,0.04,3.802,0.053c0.412,0.012,0.738,0.021,0.988,0.027
						C343.979,337.401,344.093,337.41,344.093,337.419z"/>
				</g>
				<path style="opacity:0.2;" d="M282.354,350.622c0,0-0.924-11.853,3.524-18.666l-0.706,19.022L282.354,350.622z"/>
				<g>
					<path style="fill:#455A64;" d="M284.274,339.351c-0.002,0.009-0.093-0.002-0.269-0.031c-0.205-0.038-0.461-0.085-0.778-0.143
						c-0.683-0.125-1.688-0.327-2.995-0.472c-1.299-0.128-2.935-0.21-4.726,0.276c-0.888,0.245-1.813,0.63-2.651,1.245
						c-0.841,0.609-1.555,1.478-2.054,2.517c-1.019,2.101-1.124,4.73-1.18,7.486c-0.069,2.777-0.143,5.741-0.22,8.859
						c-0.166,6.243-0.347,13.101-0.538,20.299c-0.426,14.387-0.811,27.407-1.091,36.88c-0.164,4.688-0.297,8.494-0.39,11.174
						c-0.056,1.288-0.101,2.304-0.133,3.037c-0.02,0.322-0.035,0.582-0.047,0.79c-0.014,0.178-0.025,0.269-0.034,0.269
						s-0.015-0.092-0.019-0.27c-0.001-0.209-0.002-0.469-0.004-0.791c0.009-0.735,0.021-1.752,0.035-3.04
						c0.054-2.682,0.13-6.49,0.225-11.179c0.241-9.475,0.573-22.496,0.939-36.885c0.205-7.198,0.401-14.054,0.579-20.298
						c0.094-3.117,0.184-6.081,0.268-8.857c0.077-2.755,0.195-5.446,1.281-7.636c0.532-1.083,1.3-1.995,2.19-2.623
						c0.888-0.635,1.853-1.021,2.771-1.259c1.854-0.474,3.517-0.357,4.825-0.196c1.315,0.177,2.316,0.412,2.993,0.57
						c0.313,0.078,0.565,0.142,0.768,0.192C284.188,339.313,284.276,339.342,284.274,339.351z"/>
				</g>
			</g>
			<path style="fill:#FFBE9D;" d="M282.435,263.925c0,0-25.117,25.182-29.909,30.817c-4.086,4.807-1.421,13.881,2.002,14.271
				c3.423,0.392,58.784-0.362,58.784-0.362l-0.734-11.324c0,0-35.854,0.161-36.907-0.5c-1.053-0.661,20.739-22.689,20.739-22.689
				L282.435,263.925z"/>
			<path style="fill:#FFBE9D;" d="M348.828,267.215c0,0,7.63,23.125,8.555,25.859c0.924,2.733,5.66,14.295-3.338,15.264
				c-8.999,0.968-57.305,0-57.305,0l-3.594-11.688c0,0,46.69-0.118,46.453-2.612c-0.237-2.493-7.092-23.383-7.092-23.383
				L348.828,267.215z"/>
		</g>
		<g>
			<polygon style="fill:#263238;" points="246.899,259.998 264.251,308.063 344.124,308.028 343.569,305.68 313.6,304.578 
				298.847,259.26 			"/>
			<path style="fill:#FAFAFA;" d="M282.5,281.88c0.316,1.778-0.658,3.44-2.176,3.709c-1.518,0.271-3.004-0.953-3.321-2.732
				c-0.316-1.778,0.658-3.439,2.176-3.709C280.697,278.878,282.184,280.101,282.5,281.88z"/>
		</g>
		<polygon style="fill:#455A64;" points="385.434,307.015 196.746,307.015 194.7,307.015 192.655,307.015 192.655,445.001 
			196.746,445.001 196.746,315.145 385.434,315.145 385.434,445.099 433.662,445.099 433.662,315.145 433.662,307.015 		"/>
	</g>
</g>
<g id="Character_1_1_">
	<g>
		<g>
			<g>
				<path style="fill:#E8505B;" d="M153.283,439.613l0.001-10.329l-18.508-0.123l-0.153,15.444l1.147,0.085
					c5.105,0.33,25.98,0.97,29.401-0.089C168.986,443.42,153.283,439.613,153.283,439.613z"/>
			</g>
			<g>
				<g>
					<path style="fill:#263238;" d="M165.608,443.655c0,0.174-6.922,0.315-15.461,0.315c-8.54,0-15.462-0.142-15.462-0.315
						c0-0.173,6.921-0.314,15.462-0.314C158.686,443.341,165.608,443.482,165.608,443.655z"/>
				</g>
			</g>
			<g>
				<g>
					<path style="fill:#263238;" d="M153.609,441.721c-0.152-0.08-0.021-0.626,0.376-1.163c0.396-0.54,0.88-0.826,1.001-0.705
						c0.125,0.125-0.129,0.579-0.494,1.077C154.124,441.427,153.764,441.804,153.609,441.721z"/>
				</g>
			</g>
			<g>
				<g>
					<path style="fill:#263238;" d="M154.79,442.401c-0.161-0.061-0.078-0.672,0.287-1.315c0.362-0.647,0.844-1.033,0.978-0.927
						c0.139,0.108-0.094,0.635-0.43,1.235C155.285,441.992,154.954,442.465,154.79,442.401z"/>
				</g>
			</g>
			<g>
				<g>
					<path style="fill:#263238;" d="M140.261,443.586c-0.072,0.051-0.348-0.221-0.748-0.676c-0.402-0.45-0.931-1.088-1.624-1.625
						c-0.686-0.537-1.443-0.806-2.002-0.875c-0.563-0.075-0.932,0.012-0.963-0.079c-0.033-0.067,0.311-0.325,0.978-0.365
						c0.657-0.045,1.586,0.205,2.371,0.82c0.782,0.609,1.28,1.337,1.599,1.862C140.188,443.181,140.331,443.538,140.261,443.586z"/>
				</g>
			</g>
			<g>
				<g>
					<path style="fill:#263238;" d="M153.665,439.779c0.09,0.146-0.227,0.505-0.755,0.698c-0.528,0.195-1.002,0.127-1.028-0.043
						c-0.027-0.173,0.348-0.375,0.811-0.547C153.156,439.718,153.574,439.63,153.665,439.779z"/>
				</g>
			</g>
			<g>
				<g>
					<path style="fill:#263238;" d="M153.374,438.781c0.017,0.173-0.476,0.321-1.101,0.33c-0.625,0.008-1.122-0.127-1.11-0.3
						c0.012-0.174,0.505-0.321,1.102-0.329C152.861,438.475,153.358,438.608,153.374,438.781z"/>
				</g>
			</g>
		</g>
		<path style="fill:#FFBE9D;" d="M206.958,131.526l0.171-3.125c0,0,0.409-1.873,0.395-5.248c-0.004-0.875-0.165-1.743-0.461-2.567
			c-0.359-0.999-0.892-2.307-1.405-2.932c-0.636-0.774,0.001-1.918,0.882-1.692c0.881,0.226,2.684,2.317,3.5,5.437
			c0.816,3.12,2.918-1.499,3.714-3.168c0.796-1.669,3.502-6.719,4.209-6.881c1.037-0.237,1.482,0.83,0.648,2.479
			c-0.845,1.669-2.987,6.769-2.085,7.147c0,0,1.289-0.312,1.971-0.084c0.228,0.075,0.387,0.211,0.409,0.438
			c0.089,0.907,0.292,1.436,0.292,1.436s1.242-0.397,1.553,0.129c0.311,0.526,0.404,1.739,0.404,1.739s0.944-0.419,1.441-0.097
			c1.075,0.699-0.082,2.169-0.082,2.169c-2.628,4.155-8.332,10.489-8.332,10.489l-7.271-5.851"/>
		<g>
			<path style="fill:#FFBE9D;" d="M118.05,131.32l-0.122,39.887l17.112,0.816l0.494-9.702c0,0,6.078,1.207,7.646-4.438
				c1.002-3.605,0.751-31.472,0.751-31.472L118.05,131.32z"/>
			<path style="fill:#263238;" d="M142.95,120.227c-5.206,1.687-6.462,2.249-8.795,2.436c-2.239,0.18-18.185,0.193-19.631,9.131
				c-0.168-0.368-0.339-0.809-0.451-1.314c-0.339-1.411-0.047-2.6-0.196-2.64c-0.119-0.067-0.682,1.185-0.312,2.757
				c0.046,0.205,0.104,0.396,0.17,0.577c-0.103-0.107-0.204-0.215-0.321-0.317c-0.687-0.594-1.452-0.938-2.023-1.076
				c-0.574-0.141-0.942-0.11-0.95-0.046c-0.031,0.152,1.374,0.402,2.632,1.516c0.629,0.534,1.056,1.131,1.345,1.596
				c-0.001,0.041-0.008,0.079-0.008,0.12c0,0-3.411-1.499-2.513,4.684c0.897,6.183,4.936,11.429,5.43,21.546
				c0,0,14.135,1.686,16.648-3.747l2.112-6.233c0,0-3.401-0.553-3.005-3.288c0.547-3.785,3.439-3.881,5.593-2.195l2.479-6.645
				c0,0,6.282-4.122,6.641-6.745C148.155,127.721,148.155,118.54,142.95,120.227z"/>
		</g>
		<g>
			<polygon style="fill:#E8505B;" points="70.714,431.893 68.206,443.051 85.483,445.185 86.102,434.131 			"/>
			<g>
				<path style="fill:#263238;" d="M78.514,432.44c0.142,0.022-0.112,2.316-0.568,5.122c-0.456,2.807-0.941,5.063-1.082,5.039
					c-0.142-0.022,0.112-2.316,0.568-5.123C77.887,434.674,78.372,432.417,78.514,432.44z"/>
			</g>
			<g>
				<path style="fill:#263238;" d="M85.551,443.971c-0.016,0.072-0.968-0.07-2.502-0.315c-1.72-0.278-3.75-0.607-5.994-0.972
					c-2.341-0.39-4.457-0.783-5.977-1.123c-1.521-0.338-2.448-0.608-2.433-0.676c0.016-0.073,0.968,0.069,2.502,0.313
					c1.719,0.279,3.75,0.608,5.995,0.972c2.34,0.39,4.456,0.784,5.976,1.124C84.639,443.632,85.566,443.902,85.551,443.971z"/>
			</g>
		</g>
		<g>
			<path style="fill:#263238;" d="M96.326,256.483L64.357,436.16l27.383,1.553c0,0,29.082-154.88,33.352-155.267
				c1.789-0.162,2.506,154.042,3.943,153.714c1.438-0.327,29.582,0.5,29.582,0.5s-3.808-182.461-3.741-182.465
				C154.943,254.191,96.326,256.483,96.326,256.483z"/>
			<g>
				<g>
					<path style="fill:#455A64;" d="M136.777,278.674c0.03,0.141-4.715,1.268-10.598,2.518c-5.884,1.251-10.677,2.149-10.707,2.009
						c-0.03-0.141,4.714-1.268,10.598-2.518C131.953,279.433,136.747,278.533,136.777,278.674z"/>
				</g>
				<g>
					<path style="fill:#455A64;" d="M93.738,427.162c-0.004,0.143-6.193,0.068-13.821-0.167c-7.63-0.236-13.811-0.545-13.806-0.688
						c0.004-0.144,6.192-0.068,13.822,0.168C87.562,426.711,93.743,427.018,93.738,427.162z"/>
				</g>
				<g>
					<path style="fill:#455A64;" d="M158.41,427.177c-0.004,0.144-6.686,0.061-14.922-0.185c-8.239-0.246-14.913-0.562-14.908-0.705
						c0.004-0.144,6.684-0.062,14.923,0.184C151.739,426.718,158.414,427.033,158.41,427.177z"/>
				</g>
				<g>
					<path style="fill:#455A64;" d="M109.988,283.648c0.141,0.03-6.633,32.084-15.127,71.584
						c-8.497,39.514-15.498,71.511-15.638,71.48c-0.141-0.03,6.632-32.076,15.129-71.59
						C102.846,315.623,109.848,283.618,109.988,283.648z"/>
				</g>
				<g>
					<path style="fill:#455A64;" d="M143.612,426.732c-0.009,0-0.022-0.126-0.039-0.371c-0.015-0.271-0.035-0.631-0.06-1.089
						c-0.042-0.987-0.103-2.393-0.18-4.188c-0.149-3.638-0.328-8.902-0.518-15.409c-0.38-13.014-0.752-30.996-0.85-50.86
						c-0.093-19.871,0.106-37.858,0.361-50.875c0.128-6.508,0.255-11.774,0.369-15.413c0.06-1.795,0.107-3.201,0.14-4.189
						c0.021-0.457,0.038-0.817,0.05-1.089c0.014-0.245,0.026-0.371,0.035-0.37c0.009,0,0.015,0.126,0.019,0.371
						c0.001,0.273,0.001,0.633,0.002,1.091c-0.01,0.988-0.024,2.395-0.042,4.191c-0.048,3.67-0.118,8.929-0.204,15.414
						c-0.16,13.017-0.301,31-0.208,50.867c0.098,19.859,0.412,37.839,0.697,50.853c0.148,6.484,0.268,11.742,0.352,15.412
						c0.036,1.796,0.064,3.202,0.083,4.191c0.003,0.458,0.006,0.818,0.008,1.091C143.626,426.605,143.621,426.731,143.612,426.732z"
						/>
				</g>
			</g>
		</g>
		<g>
			<path style="fill:#E8505B;" d="M204.132,130.626c0,0-21.2,31.979-22.996,33.776c-1.797,1.796-34.999,5.286-35.001,5.286
				c-10.193-2.301-43.151-1.542-49.378,3.043l0,0c-5.386,2.98-11.932,9.954-15.302,26.531c-5.749,28.278-11.498,38.697,0,42.65
				c5.309,1.825,10.309,2.807,14.156,3.335l-0.318,12.8l59.596-3.703l-3.051-31.786c-0.358-8.923-0.524-18.226-0.745-26.464
				c3.728-1.413,38.387-14.531,40.767-14.871c2.515-0.359,25.206-42.333,25.206-42.333
				C217.786,133.859,204.132,130.626,204.132,130.626z"/>
			<g>
				<path style="fill:#263238;" d="M97.24,188.502c0.144,0.004-0.175,15.577-0.712,34.779c-0.538,19.208-1.089,34.771-1.233,34.768
					c-0.144-0.004,0.175-15.574,0.713-34.782C96.544,204.065,97.096,188.499,97.24,188.502z"/>
			</g>
			<g>
				<path style="fill:#263238;" d="M184.12,171.6c-0.139,0.078-1.015-1.476-1.736-3.508c-0.721-2.029-1.361-3.626-1.248-3.69
					c0.138-0.079,1.015,1.476,1.736,3.508C183.593,169.938,184.233,171.535,184.12,171.6z"/>
			</g>
			<g>
				<path style="fill:#263238;" d="M186.497,168.879c-0.095,0.091-1.309-0.861-2.842-2.034c-1.534-1.174-2.632-2.334-2.52-2.443
					c0.095-0.091,1.309,0.861,2.842,2.034C185.511,167.609,186.609,168.77,186.497,168.879z"/>
			</g>
			<g>
				<path style="fill:#263238;" d="M215.917,141.401c-0.046,0.062-0.793-0.433-2.009-1.208c-1.215-0.776-2.913-1.815-4.848-2.853
					c-1.938-1.036-3.744-1.872-5.063-2.453c-1.319-0.583-2.145-0.93-2.119-1.002c0.022-0.063,0.893,0.162,2.257,0.66
					c1.364,0.498,3.213,1.289,5.171,2.336c1.955,1.048,3.639,2.148,4.81,3.008C215.288,140.747,215.958,141.348,215.917,141.401z"/>
			</g>
			<g>
				<path style="fill:#263238;" d="M96.526,223.434c-0.021,0.126-1.673,0.029-3.686-0.378c-2.014-0.411-3.561-1.052-3.516-1.182
					c0.047-0.143,1.64,0.268,3.622,0.672C94.925,222.947,96.553,223.277,96.526,223.434z"/>
			</g>
			<g>
				<path style="fill:#263238;" d="M151.579,169.235c0.01,0.101-1.28,0.099-3.196,0.751c-1.896,0.628-4.428,2.071-6.22,4.575
					c-1.785,2.51-2.324,5.373-2.302,7.372c0.007,2.024,0.429,3.242,0.33,3.266c-0.029,0.009-0.161-0.283-0.322-0.838
					c-0.163-0.554-0.325-1.382-0.376-2.42c-0.119-2.053,0.378-5.055,2.246-7.683c1.876-2.621,4.552-4.068,6.532-4.623
					c0.998-0.289,1.834-0.405,2.411-0.432C151.259,169.175,151.579,169.205,151.579,169.235z"/>
			</g>
			<g>
				<path style="fill:#263238;" d="M154.89,254.343c0.009,0.144-13.326,1.09-29.781,2.112c-16.46,1.023-29.807,1.735-29.815,1.592
					c-0.009-0.144,13.323-1.089,29.783-2.112C141.532,254.912,154.881,254.2,154.89,254.343z"/>
			</g>
			<g>
				<path style="fill:#263238;" d="M131.15,168.608c0.017-0.003,0.078,0.251,0.176,0.741c0.044,0.246,0.12,0.548,0.164,0.911
					c0.035,0.374,0.073,0.794,0.116,1.259c0.121,1.894-0.095,4.706-1.29,7.917c-1.234,3.145-3.52,6.79-7.424,9.196
					c-0.471,0.322-0.996,0.56-1.52,0.815c-0.517,0.273-1.071,0.466-1.624,0.674c-1.11,0.402-2.26,0.74-3.398,1.145
					c-1.138,0.401-2.271,0.874-3.301,1.543c-1.015,0.686-1.926,1.552-2.707,2.555c-1.571,2.007-2.645,4.308-3.94,6.388
					c-1.261,2.087-2.85,4.003-4.895,5.095c-2.04,1.083-4.287,1.34-6.29,1.164c-2.015-0.181-3.836-0.768-5.363-1.532
					c-3.083-1.508-5.115-3.449-6.462-4.765c-0.672-0.669-1.171-1.21-1.508-1.578c-0.333-0.371-0.502-0.572-0.489-0.585
					c0.013-0.012,0.207,0.164,0.564,0.511c0.396,0.378,0.919,0.879,1.573,1.505c1.385,1.268,3.434,3.142,6.48,4.579
					c1.507,0.728,3.284,1.276,5.239,1.433c1.942,0.153,4.098-0.116,6.026-1.156c1.93-1.046,3.449-2.877,4.688-4.94
					c1.274-2.053,2.344-4.367,3.964-6.441c0.806-1.036,1.762-1.948,2.834-2.667c1.084-0.703,2.257-1.187,3.413-1.591
					c1.155-0.384,2.289-0.761,3.401-1.131c0.543-0.202,1.088-0.389,1.587-0.65c0.507-0.246,1.018-0.472,1.475-0.781
					c3.799-2.307,6.075-5.847,7.33-8.92c1.217-3.137,1.489-5.899,1.431-7.774c-0.025-0.462-0.047-0.879-0.067-1.25
					c-0.027-0.362-0.087-0.664-0.114-0.911C131.158,168.874,131.133,168.612,131.15,168.608z"/>
			</g>
			<g>
				<path style="fill:#263238;" d="M153.718,242.137c-0.016,0.02-0.228-0.153-0.665-0.426c-0.435-0.273-1.108-0.648-2.063-0.845
					c-0.951-0.209-2.158-0.211-3.56-0.317c-1.39-0.112-2.98-0.123-4.747-0.188c-1.76-0.067-3.724-0.217-5.742-0.805
					c-2.013-0.572-4.087-1.505-6.003-2.888c-1.912-1.379-3.665-3.222-4.907-5.485c-1.241-2.252-2.004-4.895-2.012-7.635
					c-0.027-2.736,0.738-5.421,2.148-7.589c1.389-2.179,3.319-3.89,5.446-4.944c1.062-0.532,2.178-0.885,3.282-1.095
					c1.107-0.197,2.193-0.25,3.234-0.266c2.082-0.021,4.006,0.071,5.736-0.169c3.508-0.364,5.876-2.426,6.687-4.167
					c0.44-0.869,0.554-1.635,0.621-2.141c0.061-0.512,0.053-0.786,0.079-0.786c0.009,0,0.018,0.067,0.025,0.201
					c0.008,0.134,0.018,0.333,0,0.594c-0.034,0.516-0.116,1.307-0.542,2.219c-0.41,0.913-1.187,1.918-2.342,2.751
					c-1.144,0.856-2.713,1.447-4.477,1.692c-1.768,0.27-3.72,0.197-5.778,0.236c-1.03,0.024-2.092,0.086-3.16,0.285
					c-1.063,0.21-2.13,0.556-3.15,1.073c-2.041,1.026-3.897,2.684-5.23,4.788c-1.354,2.094-2.083,4.667-2.059,7.313
					c0.007,2.646,0.742,5.207,1.938,7.392c1.196,2.193,2.888,3.989,4.742,5.342c1.858,1.357,3.877,2.284,5.84,2.862
					c1.967,0.592,3.886,0.761,5.64,0.851c1.755,0.088,3.354,0.125,4.755,0.266c1.385,0.134,2.605,0.164,3.58,0.41
					c0.978,0.234,1.655,0.651,2.076,0.954c0.213,0.151,0.365,0.28,0.464,0.37C153.676,242.081,153.724,242.13,153.718,242.137z"/>
			</g>
			<g>
				<path style="fill:#263238;" d="M120.596,256.783c-0.072-0.003,0.146-0.781-0.116-2.143c-0.248-1.317-1.048-3.332-3.079-4.738
					c-0.506-0.336-1.075-0.627-1.704-0.831c-0.634-0.195-1.323-0.306-2.044-0.378c-1.438-0.157-3.046-0.106-4.685-0.635
					c-0.81-0.272-1.597-0.729-2.244-1.356c-0.642-0.634-1.151-1.413-1.523-2.261c-0.732-1.703-0.929-3.675-0.651-5.592
					c0.558-3.847,2.246-7.158,2.542-10.417c0.177-1.612,0.074-3.181-0.408-4.528c-0.469-1.355-1.337-2.423-2.321-3.137
					c-1.996-1.451-4.148-1.594-5.481-1.403c-1.368,0.202-2.04,0.643-2.064,0.58c0,0,0.632-0.508,2.033-0.78
					c1.363-0.257,3.601-0.18,5.729,1.305c1.046,0.726,2.001,1.864,2.511,3.289c0.528,1.42,0.648,3.061,0.479,4.725
					c-0.289,3.371-1.973,6.717-2.503,10.437c-0.268,1.849-0.078,3.712,0.604,5.32c0.346,0.798,0.816,1.523,1.402,2.107
					c0.592,0.58,1.3,0.997,2.051,1.258c1.519,0.508,3.108,0.484,4.576,0.659c0.737,0.084,1.454,0.208,2.121,0.425
					c0.667,0.228,1.265,0.547,1.792,0.912c2.109,1.522,2.873,3.641,3.068,5.007c0.108,0.701,0.071,1.255,0.032,1.622
					C120.653,256.597,120.613,256.786,120.596,256.783z"/>
			</g>
			<g>
				<path style="fill:#263238;" d="M118.602,201.445c-0.014-0.021,0.207-0.212,0.704-0.361c0.488-0.146,1.283-0.207,2.161,0.144
					c0.433,0.177,0.885,0.458,1.259,0.88c0.369,0.423,0.654,0.993,0.727,1.626c0.168,1.239-0.388,2.769-1.729,3.496
					c-1.365,0.688-2.942,0.261-3.853-0.601c-0.472-0.43-0.766-0.999-0.882-1.55c-0.114-0.555-0.057-1.086,0.071-1.537
					c0.266-0.91,0.818-1.493,1.246-1.771c0.435-0.286,0.726-0.325,0.732-0.301c0.018,0.043-0.243,0.148-0.609,0.462
					c-0.362,0.307-0.818,0.877-1.013,1.703c-0.205,0.807-0.063,1.916,0.779,2.642c0.792,0.724,2.174,1.063,3.286,0.492
					c1.104-0.588,1.621-1.909,1.495-2.977c-0.1-1.107-0.895-1.885-1.656-2.225c-0.771-0.358-1.5-0.363-1.97-0.284
					C118.873,201.361,118.622,201.486,118.602,201.445z"/>
			</g>
			<g>
				<path style="fill:#263238;" d="M88.622,244.081c-0.111-0.023,0.359-1.758,0.469-4.618c0.023-0.715,0.041-1.497-0.026-2.336
					c-0.015-0.841-0.151-1.729-0.265-2.666c-0.306-1.861-0.807-3.882-1.586-5.917c-0.807-2.025-1.809-3.85-2.846-5.427
					c-0.551-0.766-1.053-1.512-1.612-2.14c-0.519-0.663-1.063-1.225-1.564-1.735c-2.02-2.028-3.541-2.984-3.475-3.077
					c0.02-0.03,0.399,0.202,1.074,0.651c0.342,0.218,0.749,0.501,1.185,0.877c0.441,0.37,0.971,0.762,1.474,1.286
					c0.525,0.501,1.093,1.058,1.636,1.719c0.583,0.627,1.106,1.376,1.678,2.148c1.078,1.589,2.113,3.444,2.935,5.508
					c0.794,2.074,1.29,4.138,1.575,6.037c0.104,0.955,0.226,1.861,0.222,2.716c0.049,0.854,0.009,1.648-0.038,2.373
					c-0.015,0.726-0.139,1.373-0.212,1.943c-0.066,0.572-0.174,1.057-0.277,1.449C88.779,243.661,88.657,244.089,88.622,244.081z"/>
			</g>
			<g>
				<path style="fill:#263238;" d="M192.382,180.782c-0.019,0.036-0.541-0.218-1.49-0.66c-0.949-0.44-2.327-1.067-4.079-1.708
					c-1.752-0.629-3.888-1.272-6.322-1.597c-2.426-0.333-5.165-0.3-7.904,0.39c-2.739,0.68-5.163,1.998-6.944,3.662
					c-1.788,1.662-2.974,3.587-3.569,5.33c-0.607,1.746-0.68,3.274-0.603,4.304c0.076,1.036,0.24,1.597,0.185,1.61
					c-0.018,0.005-0.065-0.132-0.142-0.399c-0.088-0.265-0.167-0.667-0.245-1.191c-0.142-1.044-0.127-2.623,0.456-4.441
					c0.569-1.815,1.761-3.826,3.59-5.562c1.823-1.741,4.33-3.119,7.145-3.816c2.816-0.709,5.626-0.727,8.097-0.36
					c2.479,0.357,4.634,1.047,6.387,1.728c1.752,0.692,3.115,1.374,4.039,1.872c0.461,0.251,0.816,0.452,1.051,0.598
					C192.271,180.683,192.391,180.766,192.382,180.782z"/>
			</g>
			<g>
				<path style="fill:#263238;" d="M200.569,135.984c0.013-0.012,0.106,0.068,0.272,0.234c0.157,0.173,0.424,0.402,0.689,0.762
					c0.572,0.687,1.283,1.793,1.852,3.298c0.576,1.5,0.922,3.427,0.792,5.558c-0.142,2.124-0.815,4.448-2.174,6.517
					c-1.374,2.063-3.277,3.574-5.187,4.504c-1.913,0.949-3.823,1.362-5.425,1.44c-1.605,0.082-2.904-0.111-3.765-0.347
					c-0.438-0.093-0.757-0.241-0.979-0.313c-0.22-0.082-0.332-0.133-0.326-0.15c0.021-0.134,1.899,0.698,5.043,0.442
					c1.556-0.122,3.399-0.561,5.236-1.502c1.836-0.922,3.653-2.389,4.968-4.362c1.304-1.985,1.967-4.215,2.13-6.265
					c0.151-2.056-0.144-3.927-0.661-5.4C202.005,137.42,200.451,136.061,200.569,135.984z"/>
			</g>
			<g>
				<path style="fill:#263238;" d="M135.278,168.474c0.001,0.144-3.888,0.29-8.685,0.328c-4.799,0.037-8.688-0.05-8.689-0.194
					c-0.001-0.144,3.887-0.29,8.686-0.327C131.386,168.244,135.276,168.331,135.278,168.474z"/>
			</g>
		</g>
	</g>
</g>
</svg>
